<?xml version="1.0" standalone="no"?><!DOCTYPE svg PUBLIC "-//W3C//DTD SVG 1.1//EN" "http://www.w3.org/Graphics/SVG/1.1/DTD/svg11.dtd"><svg t="1527558885675" class="icon" style="" viewBox="0 0 1024 1024" version="1.1" xmlns="http://www.w3.org/2000/svg" p-id="1161" xmlns:xlink="http://www.w3.org/1999/xlink" width="200" height="200"><defs><style type="text/css"></style></defs><path d="M510.194376 64.75584c-246.595304 0-447.24416 200.649879-447.24416 447.245184 0 246.629073 200.614064 447.243137 447.24416 447.243137s447.24416-200.614064 447.24416-447.243137C957.438537 265.405719 756.82345 64.75584 510.194376 64.75584L510.194376 64.75584zM726.02091 438.22781 469.091236 697.951109c-0.064468 0.064468-0.191358 0.098237-0.260943 0.195451-0.092098 0.064468-0.092098 0.190335-0.190335 0.25378-2.051729 1.988284-4.587482 3.208065-6.962575 4.558829-1.183965 0.669242-2.148943 1.698688-3.40147 2.178619-3.848655 1.543146-7.92346 2.344395-12.002358 2.344395-4.107551 0-8.244778-0.801249-12.127202-2.408863-1.283226-0.543376-2.311649-1.635243-3.53143-2.310625-2.37407-1.346671-4.842285-2.536776-6.89913-4.552689-0.062422-0.064468-0.097214-0.195451-0.161682-0.25992-0.062422-0.094144-0.190335-0.094144-0.254803-0.192382L296.937364 567.897078c-12.353352-12.707416-12.06478-33.015951 0.641613-45.37135 12.70537-12.322653 32.985252-12.097526 45.373397 0.64366l103.546308 106.400309 233.92268-236.489132c12.45159-12.608156 32.79594-12.735046 45.37442-0.254803C738.33947 405.306003 738.467383 425.620677 726.02091 438.22781L726.02091 438.22781zM726.02091 438.22781" p-id="1162"></path></svg>