<?xml version="1.0" standalone="no"?><!DOCTYPE svg PUBLIC "-//W3C//DTD SVG 1.1//EN" "http://www.w3.org/Graphics/SVG/1.1/DTD/svg11.dtd"><svg t="1528163763361" class="icon" style="" viewBox="0 0 1024 1024" version="1.1" xmlns="http://www.w3.org/2000/svg" p-id="10992" xmlns:xlink="http://www.w3.org/1999/xlink" width="200" height="200"><defs><style type="text/css"></style></defs><path d="M719.616 392.170667 465.856 645.909333l-115.349333-115.328L189.013333 692.053333l23.061333 23.061333 138.432-138.410667 115.328 115.349333 276.842667-276.842667 46.122667 46.165333 46.122667-161.493333-161.450667 46.144L719.616 392.170667zM1019.498667 92.288 650.410667 92.288 650.410667 23.061333C650.410667 10.325333 640.085333 0 627.328 0L396.650667 0c-12.757333 0-23.082667 10.325333-23.082667 23.061333l0 69.226667L4.48 92.288l0 46.144 50.368 0c-2.581333 7.253333-4.224 14.933333-4.224 23.061333l0 645.930667c0 38.250667 30.997333 69.184 69.205333 69.184l276.821333 0-92.288 138.410667 46.165333 0 92.245333-138.410667 46.144 0 0 138.410667 46.165333 0 0-138.410667 46.122667 0 92.288 138.410667 46.122667 0-92.245333-138.410667 276.8 0c38.250667 0 69.205333-30.976 69.205333-69.184L973.376 161.472c0-8.128-1.664-15.808-4.202667-23.061333l50.325333 0L1019.498667 92.288zM419.712 57.664c0-6.357333 5.205333-11.541333 11.562667-11.541333l161.493333 0c6.336 0 11.498667 5.184 11.498667 11.541333l0 23.061333c0 6.378667-5.162667 11.541333-11.498667 11.541333l-161.493333 0c-6.357333 0-11.562667-5.162667-11.562667-11.541333L419.712 57.664zM927.253333 807.424c0 12.757333-10.325333 23.04-23.082667 23.04L119.829333 830.464c-12.736 0-23.061333-10.282667-23.061333-23.04L96.768 161.472c0-12.757333 10.325333-23.061333 23.061333-23.061333l784.341333 0c12.757333 0 23.04 10.304 23.04 23.061333l0 645.930667L927.253333 807.402667z" p-id="10993"></path></svg>