<?xml version="1.0" standalone="no"?><!DOCTYPE svg PUBLIC "-//W3C//DTD SVG 1.1//EN" "http://www.w3.org/Graphics/SVG/1.1/DTD/svg11.dtd"><svg t="1528163606475" class="icon" style="" viewBox="0 0 1024 1024" version="1.1" xmlns="http://www.w3.org/2000/svg" p-id="9038" xmlns:xlink="http://www.w3.org/1999/xlink" width="200" height="200"><defs><style type="text/css"></style></defs><path d="M648.533333 647.543467c9.4208 0 17.066667-7.645867 17.066667-17.066667s-7.645867-17.066667-17.066667-17.066667l-117.794133 0 107.485867-171.997867c4.983467-7.9872 2.56-18.5344-5.4272-23.517867-7.9872-5.0176-18.5344-2.594133-23.483733 5.4272l-109.3632 174.967467-109.3632-174.967467c-4.983467-8.021333-15.496533-10.4448-23.517867-5.4272-7.9872 4.983467-10.410667 15.530667-5.4272 23.517867l107.485867 171.997867-117.794133 0c-9.4208 0-17.066667 7.645867-17.066667 17.066667s7.645867 17.066667 17.066667 17.066667l131.515733 0 0 40.1408-131.515733 0c-9.4208 0-17.066667 7.68-17.066667 17.066667 0 9.454933 7.645867 17.066667 17.066667 17.066667l131.515733 0L482.850133 853.333333c0 9.4208 7.645867 17.066667 17.066667 17.066667s17.066667-7.645867 17.066667-17.066667l0-131.549867L648.533333 721.783467c9.4208 0 17.066667-7.611733 17.066667-17.066667 0-9.386667-7.645867-17.066667-17.066667-17.066667l-131.515733 0 0-40.1408L648.533333 647.509333zM170.666667 85.333333l648.533333 0c9.4208 0 17.066667-7.645867 17.066667-17.066667S828.6208 51.2 819.2 51.2L170.666667 51.2C161.245867 51.2 153.6 58.845867 153.6 68.266667S161.245867 85.333333 170.666667 85.333333zM102.4 187.733333l785.066667 0c9.4208 0 17.066667-7.645867 17.066667-17.066667S896.887467 153.6 887.466667 153.6L102.4 153.6C92.9792 153.6 85.333333 161.245867 85.333333 170.666667S92.9792 187.733333 102.4 187.733333zM887.466667 256L136.533333 256c-47.035733 0-85.333333 38.2976-85.333333 85.333333l0 546.133333c0 47.069867 38.2976 85.333333 85.333333 85.333333l750.933333 0c47.069867 0 85.333333-38.263467 85.333333-85.333333L972.8 341.333333C972.8 294.2976 934.536533 256 887.466667 256zM938.666667 887.466667c0 28.228267-22.971733 51.2-51.2 51.2L136.533333 938.666667c-28.228267 0-51.2-22.971733-51.2-51.2L85.333333 341.333333c0-28.228267 22.971733-51.2 51.2-51.2l750.933333 0c28.228267 0 51.2 22.971733 51.2 51.2L938.666667 887.466667z" fill="" p-id="9039"></path></svg>