<?xml version="1.0" standalone="no"?><!DOCTYPE svg PUBLIC "-//W3C//DTD SVG 1.1//EN" "http://www.w3.org/Graphics/SVG/1.1/DTD/svg11.dtd"><svg t="1528163103378" class="icon" style="" viewBox="0 0 1024 1024" version="1.1" xmlns="http://www.w3.org/2000/svg" p-id="2422" xmlns:xlink="http://www.w3.org/1999/xlink" width="200" height="200"><defs><style type="text/css"></style></defs><path d="M927.744 763.648l-215.808-84.224c-15.104-5.888-40.192-17.92-49.408-26.368-0.512-1.536-4.096-12.288 4.864-42.496 1.536-5.376 13.824-24.064 23.808-38.912 36.352-54.784 97.024-146.432 97.024-234.496 0-89.344-28.16-173.312-79.616-236.544C655.872 35.584 585.472 0 510.464 0c-75.008 0-145.408 35.584-197.888 100.608-51.456 63.488-79.616 147.456-79.616 236.544 0 95.744 68.608 200.704 101.376 251.136 5.12 8.192 10.496 15.872 12.032 18.944 7.936 15.104 5.888 38.912 2.304 44.8-6.656 6.656-35.072 18.944-56.832 25.6l-1.28 0.256-195.328 87.04C39.168 785.408 0 838.144 0 893.44v23.04c0 62.464 49.664 107.52 118.016 107.52h786.944c68.352 0 118.016-45.312 118.272-107.52v-23.04c0-56.064-39.168-109.312-95.488-129.792z m47.104 150.016c0 43.008-36.352 62.464-72.704 62.464H121.088c-36.096 0-72.704-19.2-72.704-62.464V890.88c0-36.864 27.136-72.192 66.048-86.016l0.768-0.256 193.024-86.016c15.104-4.864 58.88-19.712 75.264-37.632 17.152-19.2 18.688-65.024 3.584-94.208-2.56-5.12-7.168-12.032-14.08-22.784-28.16-42.752-93.44-143.104-93.44-225.024C279.552 178.688 383.232 48.64 510.72 48.64s231.168 130.048 231.168 290.304c0 73.728-55.552 157.952-88.832 208.128-16.896 25.6-25.856 39.168-29.184 50.432-12.288 41.216-10.24 70.144 6.144 86.272 18.688 18.176 59.904 34.56 64.256 36.352l214.784 83.456 0.512 0.256c38.144 13.568 66.048 50.432 66.048 87.296v22.528z" p-id="2423"></path></svg>