<?xml version="1.0" standalone="no"?><!DOCTYPE svg PUBLIC "-//W3C//DTD SVG 1.1//EN" "http://www.w3.org/Graphics/SVG/1.1/DTD/svg11.dtd"><svg t="1528163905577" class="icon" style="" viewBox="0 0 1024 1024" version="1.1" xmlns="http://www.w3.org/2000/svg" p-id="11999" xmlns:xlink="http://www.w3.org/1999/xlink" width="200" height="200"><defs><style type="text/css"></style></defs><path d="M855.5 839.9c-14 0-25.5 11.3-25.5 25.3L830 966 172 966 172 56l658 0 0 353.8c0 14 11.5 25.3 25.5 25.3 14 0 25.5-11.3 25.5-25.3L881 30.3c0-14-11.8-25.3-25.8-25.3L146.8 5c-14 0-24.8 11.3-24.8 25.3l0 961.4c0 14 10.9 25.3 24.8 25.3l708.4 0c14 0 25.8-11.3 25.8-25.3L881 865.2C881 851.2 869.5 839.9 855.5 839.9z" p-id="12000"></path><path d="M813.3 666.8c26.1-30.9 41.9-70.7 41.9-114.2 0-97.7-79.4-177.1-177.1-177.1C580.5 375.5 501 455 501 552.6s79.4 177.1 177.1 177.1c35.9 0 69.3-10.8 97.3-29.3l118.7 118.7 35.8-35.8L813.3 666.8zM678.1 679.1c-69.7 0-126.5-56.8-126.5-126.5s56.8-126.5 126.5-126.5 126.5 56.8 126.5 126.5S747.9 679.1 678.1 679.1z" p-id="12001"></path></svg>